<?xml version="1.0" encoding="utf-8" standalone="no"?>
<!DOCTYPE svg PUBLIC "-//W3C//DTD SVG 1.1//EN"
  "http://www.w3.org/Graphics/SVG/1.1/DTD/svg11.dtd">
<!-- Created with matplotlib (https://matplotlib.org/) -->
<svg height="348.48pt" version="1.1" viewBox="0 0 419.223508 348.48" width="419.223508pt" xmlns="http://www.w3.org/2000/svg" xmlns:xlink="http://www.w3.org/1999/xlink">
 <metadata>
  <rdf:RDF xmlns:cc="http://creativecommons.org/ns#" xmlns:dc="http://purl.org/dc/elements/1.1/" xmlns:rdf="http://www.w3.org/1999/02/22-rdf-syntax-ns#">
   <cc:Work>
    <dc:type rdf:resource="http://purl.org/dc/dcmitype/StillImage"/>
    <dc:date>2021-06-29T18:34:34.867227</dc:date>
    <dc:format>image/svg+xml</dc:format>
    <dc:creator>
     <cc:Agent>
      <dc:title>Matplotlib v3.3.4, https://matplotlib.org/</dc:title>
     </cc:Agent>
    </dc:creator>
   </cc:Work>
  </rdf:RDF>
 </metadata>
 <defs>
  <style type="text/css">*{stroke-linecap:butt;stroke-linejoin:round;}</style>
 </defs>
 <g id="figure_1">
  <g id="patch_1">
   <path d="M 0 348.48 
L 419.223508 348.48 
L 419.223508 0 
L 0 0 
z
" style="fill:#ffffff;"/>
  </g>
  <g id="axes_1">
   <g id="patch_2">
    <path d="M 55.72125 253.28 
L 402.600657 253.28 
L 402.600657 7.2 
L 55.72125 7.2 
z
" style="fill:#ffffff;"/>
   </g>
   <g id="matplotlib.axis_1">
    <g id="xtick_1">
     <g id="text_1">
      <!-- Bagging -->
      <g style="fill:#262626;" transform="translate(74.319566 289.782013)rotate(-30)scale(0.11 -0.11)">
       <defs>
        <path d="M 7.328125 0 
L 7.328125 71.578125 
L 34.1875 71.578125 
Q 42.390625 71.578125 47.34375 69.40625 
Q 52.296875 67.234375 55.09375 62.71875 
Q 57.90625 58.203125 57.90625 53.265625 
Q 57.90625 48.6875 55.421875 44.625 
Q 52.9375 40.578125 47.90625 38.09375 
Q 54.390625 36.1875 57.875 31.59375 
Q 61.375 27 61.375 20.75 
Q 61.375 15.71875 59.25 11.390625 
Q 57.125 7.078125 54 4.734375 
Q 50.875 2.390625 46.15625 1.1875 
Q 41.453125 0 34.625 0 
z
M 16.796875 41.5 
L 32.28125 41.5 
Q 38.578125 41.5 41.3125 42.328125 
Q 44.921875 43.40625 46.75 45.890625 
Q 48.578125 48.390625 48.578125 52.15625 
Q 48.578125 55.71875 46.875 58.421875 
Q 45.171875 61.140625 41.984375 62.140625 
Q 38.8125 63.140625 31.109375 63.140625 
L 16.796875 63.140625 
z
M 16.796875 8.453125 
L 34.625 8.453125 
Q 39.203125 8.453125 41.0625 8.796875 
Q 44.34375 9.375 46.53125 10.734375 
Q 48.734375 12.109375 50.140625 14.71875 
Q 51.5625 17.328125 51.5625 20.75 
Q 51.5625 24.75 49.515625 27.703125 
Q 47.46875 30.671875 43.828125 31.859375 
Q 40.1875 33.0625 33.34375 33.0625 
L 16.796875 33.0625 
z
" id="ArialMT-66"/>
        <path d="M 40.4375 6.390625 
Q 35.546875 2.25 31.03125 0.53125 
Q 26.515625 -1.171875 21.34375 -1.171875 
Q 12.796875 -1.171875 8.203125 3 
Q 3.609375 7.171875 3.609375 13.671875 
Q 3.609375 17.484375 5.34375 20.625 
Q 7.078125 23.78125 9.890625 25.6875 
Q 12.703125 27.59375 16.21875 28.5625 
Q 18.796875 29.25 24.03125 29.890625 
Q 34.671875 31.15625 39.703125 32.90625 
Q 39.75 34.71875 39.75 35.203125 
Q 39.75 40.578125 37.25 42.78125 
Q 33.890625 45.75 27.25 45.75 
Q 21.046875 45.75 18.09375 43.578125 
Q 15.140625 41.40625 13.71875 35.890625 
L 5.125 37.0625 
Q 6.296875 42.578125 8.984375 45.96875 
Q 11.671875 49.359375 16.75 51.1875 
Q 21.828125 53.03125 28.515625 53.03125 
Q 35.15625 53.03125 39.296875 51.46875 
Q 43.453125 49.90625 45.40625 47.53125 
Q 47.359375 45.171875 48.140625 41.546875 
Q 48.578125 39.3125 48.578125 33.453125 
L 48.578125 21.734375 
Q 48.578125 9.46875 49.140625 6.21875 
Q 49.703125 2.984375 51.375 0 
L 42.1875 0 
Q 40.828125 2.734375 40.4375 6.390625 
z
M 39.703125 26.03125 
Q 34.90625 24.078125 25.34375 22.703125 
Q 19.921875 21.921875 17.671875 20.9375 
Q 15.4375 19.96875 14.203125 18.09375 
Q 12.984375 16.21875 12.984375 13.921875 
Q 12.984375 10.40625 15.640625 8.0625 
Q 18.3125 5.71875 23.4375 5.71875 
Q 28.515625 5.71875 32.46875 7.9375 
Q 36.421875 10.15625 38.28125 14.015625 
Q 39.703125 17 39.703125 22.796875 
z
" id="ArialMT-97"/>
        <path d="M 4.984375 -4.296875 
L 13.53125 -5.5625 
Q 14.0625 -9.515625 16.5 -11.328125 
Q 19.78125 -13.765625 25.4375 -13.765625 
Q 31.546875 -13.765625 34.859375 -11.328125 
Q 38.1875 -8.890625 39.359375 -4.5 
Q 40.046875 -1.8125 39.984375 6.78125 
Q 34.234375 0 25.640625 0 
Q 14.9375 0 9.078125 7.71875 
Q 3.21875 15.4375 3.21875 26.21875 
Q 3.21875 33.640625 5.90625 39.90625 
Q 8.59375 46.1875 13.6875 49.609375 
Q 18.796875 53.03125 25.6875 53.03125 
Q 34.859375 53.03125 40.828125 45.609375 
L 40.828125 51.859375 
L 48.921875 51.859375 
L 48.921875 7.03125 
Q 48.921875 -5.078125 46.453125 -10.125 
Q 44 -15.1875 38.640625 -18.109375 
Q 33.296875 -21.046875 25.484375 -21.046875 
Q 16.21875 -21.046875 10.5 -16.875 
Q 4.78125 -12.703125 4.984375 -4.296875 
z
M 12.25 26.859375 
Q 12.25 16.65625 16.296875 11.96875 
Q 20.359375 7.28125 26.46875 7.28125 
Q 32.515625 7.28125 36.609375 11.9375 
Q 40.71875 16.609375 40.71875 26.5625 
Q 40.71875 36.078125 36.5 40.90625 
Q 32.28125 45.75 26.3125 45.75 
Q 20.453125 45.75 16.34375 40.984375 
Q 12.25 36.234375 12.25 26.859375 
z
" id="ArialMT-103"/>
        <path d="M 6.640625 61.46875 
L 6.640625 71.578125 
L 15.4375 71.578125 
L 15.4375 61.46875 
z
M 6.640625 0 
L 6.640625 51.859375 
L 15.4375 51.859375 
L 15.4375 0 
z
" id="ArialMT-105"/>
        <path d="M 6.59375 0 
L 6.59375 51.859375 
L 14.5 51.859375 
L 14.5 44.484375 
Q 20.21875 53.03125 31 53.03125 
Q 35.6875 53.03125 39.625 51.34375 
Q 43.5625 49.65625 45.515625 46.921875 
Q 47.46875 44.1875 48.25 40.4375 
Q 48.734375 37.984375 48.734375 31.890625 
L 48.734375 0 
L 39.9375 0 
L 39.9375 31.546875 
Q 39.9375 36.921875 38.90625 39.578125 
Q 37.890625 42.234375 35.28125 43.8125 
Q 32.671875 45.40625 29.15625 45.40625 
Q 23.53125 45.40625 19.453125 41.84375 
Q 15.375 38.28125 15.375 28.328125 
L 15.375 0 
z
" id="ArialMT-110"/>
       </defs>
       <use xlink:href="#ArialMT-66"/>
       <use x="66.699219" xlink:href="#ArialMT-97"/>
       <use x="122.314453" xlink:href="#ArialMT-103"/>
       <use x="177.929688" xlink:href="#ArialMT-103"/>
       <use x="233.544922" xlink:href="#ArialMT-105"/>
       <use x="255.761719" xlink:href="#ArialMT-110"/>
       <use x="311.376953" xlink:href="#ArialMT-103"/>
      </g>
     </g>
    </g>
    <g id="xtick_2">
     <g id="text_2">
      <!-- XGBoost -->
      <g style="fill:#262626;" transform="translate(142.145418 291.609045)rotate(-30)scale(0.11 -0.11)">
       <defs>
        <path d="M 0.4375 0 
L 28.125 37.3125 
L 3.71875 71.578125 
L 14.984375 71.578125 
L 27.984375 53.21875 
Q 32.03125 47.515625 33.734375 44.4375 
Q 36.140625 48.34375 39.40625 52.59375 
L 53.8125 71.578125 
L 64.109375 71.578125 
L 38.96875 37.84375 
L 66.0625 0 
L 54.34375 0 
L 36.328125 25.53125 
Q 34.8125 27.734375 33.203125 30.328125 
Q 30.8125 26.421875 29.78125 24.953125 
L 11.8125 0 
z
" id="ArialMT-88"/>
        <path d="M 41.21875 28.078125 
L 41.21875 36.46875 
L 71.53125 36.53125 
L 71.53125 9.96875 
Q 64.546875 4.390625 57.125 1.578125 
Q 49.703125 -1.21875 41.890625 -1.21875 
Q 31.34375 -1.21875 22.71875 3.296875 
Q 14.109375 7.8125 9.71875 16.359375 
Q 5.328125 24.90625 5.328125 35.453125 
Q 5.328125 45.90625 9.6875 54.953125 
Q 14.0625 64.015625 22.265625 68.40625 
Q 30.46875 72.796875 41.15625 72.796875 
Q 48.921875 72.796875 55.1875 70.28125 
Q 61.46875 67.78125 65.03125 63.28125 
Q 68.609375 58.796875 70.453125 51.5625 
L 61.921875 49.21875 
Q 60.296875 54.6875 57.90625 57.8125 
Q 55.515625 60.9375 51.0625 62.8125 
Q 46.625 64.703125 41.21875 64.703125 
Q 34.71875 64.703125 29.984375 62.71875 
Q 25.25 60.75 22.34375 57.515625 
Q 19.4375 54.296875 17.828125 50.4375 
Q 15.09375 43.796875 15.09375 36.03125 
Q 15.09375 26.46875 18.390625 20.015625 
Q 21.6875 13.578125 27.984375 10.453125 
Q 34.28125 7.328125 41.359375 7.328125 
Q 47.515625 7.328125 53.375 9.6875 
Q 59.234375 12.0625 62.25 14.75 
L 62.25 28.078125 
z
" id="ArialMT-71"/>
        <path d="M 3.328125 25.921875 
Q 3.328125 40.328125 11.328125 47.265625 
Q 18.015625 53.03125 27.640625 53.03125 
Q 38.328125 53.03125 45.109375 46.015625 
Q 51.90625 39.015625 51.90625 26.65625 
Q 51.90625 16.65625 48.90625 10.90625 
Q 45.90625 5.171875 40.15625 2 
Q 34.421875 -1.171875 27.640625 -1.171875 
Q 16.75 -1.171875 10.03125 5.8125 
Q 3.328125 12.796875 3.328125 25.921875 
z
M 12.359375 25.921875 
Q 12.359375 15.96875 16.703125 11.015625 
Q 21.046875 6.0625 27.640625 6.0625 
Q 34.1875 6.0625 38.53125 11.03125 
Q 42.875 16.015625 42.875 26.21875 
Q 42.875 35.84375 38.5 40.796875 
Q 34.125 45.75 27.640625 45.75 
Q 21.046875 45.75 16.703125 40.8125 
Q 12.359375 35.890625 12.359375 25.921875 
z
" id="ArialMT-111"/>
        <path d="M 3.078125 15.484375 
L 11.765625 16.84375 
Q 12.5 11.625 15.84375 8.84375 
Q 19.1875 6.0625 25.203125 6.0625 
Q 31.25 6.0625 34.171875 8.515625 
Q 37.109375 10.984375 37.109375 14.3125 
Q 37.109375 17.28125 34.515625 19 
Q 32.71875 20.171875 25.53125 21.96875 
Q 15.875 24.421875 12.140625 26.203125 
Q 8.40625 27.984375 6.46875 31.125 
Q 4.546875 34.28125 4.546875 38.09375 
Q 4.546875 41.546875 6.125 44.5 
Q 7.71875 47.46875 10.453125 49.421875 
Q 12.5 50.921875 16.03125 51.96875 
Q 19.578125 53.03125 23.640625 53.03125 
Q 29.734375 53.03125 34.34375 51.265625 
Q 38.96875 49.515625 41.15625 46.5 
Q 43.359375 43.5 44.1875 38.484375 
L 35.59375 37.3125 
Q 35.015625 41.3125 32.203125 43.546875 
Q 29.390625 45.796875 24.265625 45.796875 
Q 18.21875 45.796875 15.625 43.796875 
Q 13.03125 41.796875 13.03125 39.109375 
Q 13.03125 37.40625 14.109375 36.03125 
Q 15.1875 34.625 17.484375 33.6875 
Q 18.796875 33.203125 25.25 31.453125 
Q 34.578125 28.953125 38.25 27.359375 
Q 41.9375 25.78125 44.03125 22.75 
Q 46.140625 19.734375 46.140625 15.234375 
Q 46.140625 10.84375 43.578125 6.953125 
Q 41.015625 3.078125 36.171875 0.953125 
Q 31.34375 -1.171875 25.25 -1.171875 
Q 15.140625 -1.171875 9.84375 3.03125 
Q 4.546875 7.234375 3.078125 15.484375 
z
" id="ArialMT-115"/>
        <path d="M 25.78125 7.859375 
L 27.046875 0.09375 
Q 23.34375 -0.6875 20.40625 -0.6875 
Q 15.625 -0.6875 12.984375 0.828125 
Q 10.359375 2.34375 9.28125 4.8125 
Q 8.203125 7.28125 8.203125 15.1875 
L 8.203125 45.015625 
L 1.765625 45.015625 
L 1.765625 51.859375 
L 8.203125 51.859375 
L 8.203125 64.703125 
L 16.9375 69.96875 
L 16.9375 51.859375 
L 25.78125 51.859375 
L 25.78125 45.015625 
L 16.9375 45.015625 
L 16.9375 14.703125 
Q 16.9375 10.9375 17.40625 9.859375 
Q 17.875 8.796875 18.921875 8.15625 
Q 19.96875 7.515625 21.921875 7.515625 
Q 23.390625 7.515625 25.78125 7.859375 
z
" id="ArialMT-116"/>
       </defs>
       <use xlink:href="#ArialMT-88"/>
       <use x="66.699219" xlink:href="#ArialMT-71"/>
       <use x="144.482422" xlink:href="#ArialMT-66"/>
       <use x="211.181641" xlink:href="#ArialMT-111"/>
       <use x="266.796875" xlink:href="#ArialMT-111"/>
       <use x="322.412109" xlink:href="#ArialMT-115"/>
       <use x="372.412109" xlink:href="#ArialMT-116"/>
      </g>
     </g>
    </g>
    <g id="xtick_3">
     <g id="text_3">
      <!-- Random Forest -->
      <g style="fill:#262626;" transform="translate(197.759547 307.499748)rotate(-30)scale(0.11 -0.11)">
       <defs>
        <path d="M 7.859375 0 
L 7.859375 71.578125 
L 39.59375 71.578125 
Q 49.171875 71.578125 54.140625 69.640625 
Q 59.125 67.71875 62.109375 62.828125 
Q 65.09375 57.953125 65.09375 52.046875 
Q 65.09375 44.4375 60.15625 39.203125 
Q 55.21875 33.984375 44.921875 32.5625 
Q 48.6875 30.765625 50.640625 29 
Q 54.78125 25.203125 58.5 19.484375 
L 70.953125 0 
L 59.03125 0 
L 49.5625 14.890625 
Q 45.40625 21.34375 42.71875 24.75 
Q 40.046875 28.171875 37.921875 29.53125 
Q 35.796875 30.90625 33.59375 31.453125 
Q 31.984375 31.78125 28.328125 31.78125 
L 17.328125 31.78125 
L 17.328125 0 
z
M 17.328125 39.984375 
L 37.703125 39.984375 
Q 44.1875 39.984375 47.84375 41.328125 
Q 51.515625 42.671875 53.421875 45.625 
Q 55.328125 48.578125 55.328125 52.046875 
Q 55.328125 57.125 51.640625 60.390625 
Q 47.953125 63.671875 39.984375 63.671875 
L 17.328125 63.671875 
z
" id="ArialMT-82"/>
        <path d="M 40.234375 0 
L 40.234375 6.546875 
Q 35.296875 -1.171875 25.734375 -1.171875 
Q 19.53125 -1.171875 14.328125 2.25 
Q 9.125 5.671875 6.265625 11.796875 
Q 3.421875 17.921875 3.421875 25.875 
Q 3.421875 33.640625 6 39.96875 
Q 8.59375 46.296875 13.765625 49.65625 
Q 18.953125 53.03125 25.34375 53.03125 
Q 30.03125 53.03125 33.6875 51.046875 
Q 37.359375 49.078125 39.65625 45.90625 
L 39.65625 71.578125 
L 48.390625 71.578125 
L 48.390625 0 
z
M 12.453125 25.875 
Q 12.453125 15.921875 16.640625 10.984375 
Q 20.84375 6.0625 26.5625 6.0625 
Q 32.328125 6.0625 36.34375 10.765625 
Q 40.375 15.484375 40.375 25.140625 
Q 40.375 35.796875 36.265625 40.765625 
Q 32.171875 45.75 26.171875 45.75 
Q 20.3125 45.75 16.375 40.96875 
Q 12.453125 36.1875 12.453125 25.875 
z
" id="ArialMT-100"/>
        <path d="M 6.59375 0 
L 6.59375 51.859375 
L 14.453125 51.859375 
L 14.453125 44.578125 
Q 16.890625 48.390625 20.9375 50.703125 
Q 25 53.03125 30.171875 53.03125 
Q 35.9375 53.03125 39.625 50.640625 
Q 43.3125 48.25 44.828125 43.953125 
Q 50.984375 53.03125 60.84375 53.03125 
Q 68.5625 53.03125 72.703125 48.75 
Q 76.859375 44.484375 76.859375 35.59375 
L 76.859375 0 
L 68.109375 0 
L 68.109375 32.671875 
Q 68.109375 37.9375 67.25 40.25 
Q 66.40625 42.578125 64.15625 43.984375 
Q 61.921875 45.40625 58.890625 45.40625 
Q 53.421875 45.40625 49.796875 41.765625 
Q 46.1875 38.140625 46.1875 30.125 
L 46.1875 0 
L 37.40625 0 
L 37.40625 33.6875 
Q 37.40625 39.546875 35.25 42.46875 
Q 33.109375 45.40625 28.21875 45.40625 
Q 24.515625 45.40625 21.359375 43.453125 
Q 18.21875 41.5 16.796875 37.734375 
Q 15.375 33.984375 15.375 26.90625 
L 15.375 0 
z
" id="ArialMT-109"/>
        <path id="ArialMT-32"/>
        <path d="M 8.203125 0 
L 8.203125 71.578125 
L 56.5 71.578125 
L 56.5 63.140625 
L 17.671875 63.140625 
L 17.671875 40.96875 
L 51.265625 40.96875 
L 51.265625 32.515625 
L 17.671875 32.515625 
L 17.671875 0 
z
" id="ArialMT-70"/>
        <path d="M 6.5 0 
L 6.5 51.859375 
L 14.40625 51.859375 
L 14.40625 44 
Q 17.4375 49.515625 20 51.265625 
Q 22.5625 53.03125 25.640625 53.03125 
Q 30.078125 53.03125 34.671875 50.203125 
L 31.640625 42.046875 
Q 28.421875 43.953125 25.203125 43.953125 
Q 22.3125 43.953125 20.015625 42.21875 
Q 17.71875 40.484375 16.75 37.40625 
Q 15.28125 32.71875 15.28125 27.15625 
L 15.28125 0 
z
" id="ArialMT-114"/>
        <path d="M 42.09375 16.703125 
L 51.171875 15.578125 
Q 49.03125 7.625 43.21875 3.21875 
Q 37.40625 -1.171875 28.375 -1.171875 
Q 17 -1.171875 10.328125 5.828125 
Q 3.65625 12.84375 3.65625 25.484375 
Q 3.65625 38.578125 10.390625 45.796875 
Q 17.140625 53.03125 27.875 53.03125 
Q 38.28125 53.03125 44.875 45.953125 
Q 51.46875 38.875 51.46875 26.03125 
Q 51.46875 25.25 51.421875 23.6875 
L 12.75 23.6875 
Q 13.234375 15.140625 17.578125 10.59375 
Q 21.921875 6.0625 28.421875 6.0625 
Q 33.25 6.0625 36.671875 8.59375 
Q 40.09375 11.140625 42.09375 16.703125 
z
M 13.234375 30.90625 
L 42.1875 30.90625 
Q 41.609375 37.453125 38.875 40.71875 
Q 34.671875 45.796875 27.984375 45.796875 
Q 21.921875 45.796875 17.796875 41.75 
Q 13.671875 37.703125 13.234375 30.90625 
z
" id="ArialMT-101"/>
       </defs>
       <use xlink:href="#ArialMT-82"/>
       <use x="72.216797" xlink:href="#ArialMT-97"/>
       <use x="127.832031" xlink:href="#ArialMT-110"/>
       <use x="183.447266" xlink:href="#ArialMT-100"/>
       <use x="239.0625" xlink:href="#ArialMT-111"/>
       <use x="294.677734" xlink:href="#ArialMT-109"/>
       <use x="377.978516" xlink:href="#ArialMT-32"/>
       <use x="405.761719" xlink:href="#ArialMT-70"/>
       <use x="466.845703" xlink:href="#ArialMT-111"/>
       <use x="522.460938" xlink:href="#ArialMT-114"/>
       <use x="555.761719" xlink:href="#ArialMT-101"/>
       <use x="611.376953" xlink:href="#ArialMT-115"/>
       <use x="661.376953" xlink:href="#ArialMT-116"/>
      </g>
     </g>
    </g>
    <g id="xtick_4">
     <g id="text_4">
      <!-- Neural Network -->
      <g style="fill:#262626;" transform="translate(267.136917 307.498029)rotate(-30)scale(0.11 -0.11)">
       <defs>
        <path d="M 7.625 0 
L 7.625 71.578125 
L 17.328125 71.578125 
L 54.9375 15.375 
L 54.9375 71.578125 
L 64.015625 71.578125 
L 64.015625 0 
L 54.296875 0 
L 16.703125 56.25 
L 16.703125 0 
z
" id="ArialMT-78"/>
        <path d="M 40.578125 0 
L 40.578125 7.625 
Q 34.515625 -1.171875 24.125 -1.171875 
Q 19.53125 -1.171875 15.546875 0.578125 
Q 11.578125 2.34375 9.640625 5 
Q 7.71875 7.671875 6.9375 11.53125 
Q 6.390625 14.109375 6.390625 19.734375 
L 6.390625 51.859375 
L 15.1875 51.859375 
L 15.1875 23.09375 
Q 15.1875 16.21875 15.71875 13.8125 
Q 16.546875 10.359375 19.234375 8.375 
Q 21.921875 6.390625 25.875 6.390625 
Q 29.828125 6.390625 33.296875 8.421875 
Q 36.765625 10.453125 38.203125 13.9375 
Q 39.65625 17.4375 39.65625 24.078125 
L 39.65625 51.859375 
L 48.4375 51.859375 
L 48.4375 0 
z
" id="ArialMT-117"/>
        <path d="M 6.390625 0 
L 6.390625 71.578125 
L 15.1875 71.578125 
L 15.1875 0 
z
" id="ArialMT-108"/>
        <path d="M 16.15625 0 
L 0.296875 51.859375 
L 9.375 51.859375 
L 17.625 21.921875 
L 20.703125 10.796875 
Q 20.90625 11.625 23.390625 21.484375 
L 31.640625 51.859375 
L 40.671875 51.859375 
L 48.4375 21.78125 
L 51.03125 11.859375 
L 54 21.875 
L 62.890625 51.859375 
L 71.4375 51.859375 
L 55.21875 0 
L 46.09375 0 
L 37.84375 31.0625 
L 35.84375 39.890625 
L 25.34375 0 
z
" id="ArialMT-119"/>
        <path d="M 6.640625 0 
L 6.640625 71.578125 
L 15.4375 71.578125 
L 15.4375 30.765625 
L 36.234375 51.859375 
L 47.609375 51.859375 
L 27.78125 32.625 
L 49.609375 0 
L 38.765625 0 
L 21.625 26.515625 
L 15.4375 20.5625 
L 15.4375 0 
z
" id="ArialMT-107"/>
       </defs>
       <use xlink:href="#ArialMT-78"/>
       <use x="72.216797" xlink:href="#ArialMT-101"/>
       <use x="127.832031" xlink:href="#ArialMT-117"/>
       <use x="183.447266" xlink:href="#ArialMT-114"/>
       <use x="216.748047" xlink:href="#ArialMT-97"/>
       <use x="272.363281" xlink:href="#ArialMT-108"/>
       <use x="294.580078" xlink:href="#ArialMT-32"/>
       <use x="322.363281" xlink:href="#ArialMT-78"/>
       <use x="394.580078" xlink:href="#ArialMT-101"/>
       <use x="450.195312" xlink:href="#ArialMT-116"/>
       <use x="477.978516" xlink:href="#ArialMT-119"/>
       <use x="550.195312" xlink:href="#ArialMT-111"/>
       <use x="605.810547" xlink:href="#ArialMT-114"/>
       <use x="639.111328" xlink:href="#ArialMT-107"/>
      </g>
     </g>
    </g>
    <g id="xtick_5">
     <g id="text_5">
      <!-- Logistic Regression -->
      <g style="fill:#262626;" transform="translate(327.738722 317.592248)rotate(-30)scale(0.11 -0.11)">
       <defs>
        <path d="M 7.328125 0 
L 7.328125 71.578125 
L 16.796875 71.578125 
L 16.796875 8.453125 
L 52.046875 8.453125 
L 52.046875 0 
z
" id="ArialMT-76"/>
        <path d="M 40.4375 19 
L 49.078125 17.875 
Q 47.65625 8.9375 41.8125 3.875 
Q 35.984375 -1.171875 27.484375 -1.171875 
Q 16.84375 -1.171875 10.375 5.78125 
Q 3.90625 12.75 3.90625 25.734375 
Q 3.90625 34.125 6.6875 40.421875 
Q 9.46875 46.734375 15.15625 49.875 
Q 20.84375 53.03125 27.546875 53.03125 
Q 35.984375 53.03125 41.359375 48.75 
Q 46.734375 44.484375 48.25 36.625 
L 39.703125 35.296875 
Q 38.484375 40.53125 35.375 43.15625 
Q 32.28125 45.796875 27.875 45.796875 
Q 21.234375 45.796875 17.078125 41.03125 
Q 12.9375 36.28125 12.9375 25.984375 
Q 12.9375 15.53125 16.9375 10.796875 
Q 20.953125 6.0625 27.390625 6.0625 
Q 32.5625 6.0625 36.03125 9.234375 
Q 39.5 12.40625 40.4375 19 
z
" id="ArialMT-99"/>
       </defs>
       <use xlink:href="#ArialMT-76"/>
       <use x="55.615234" xlink:href="#ArialMT-111"/>
       <use x="111.230469" xlink:href="#ArialMT-103"/>
       <use x="166.845703" xlink:href="#ArialMT-105"/>
       <use x="189.0625" xlink:href="#ArialMT-115"/>
       <use x="239.0625" xlink:href="#ArialMT-116"/>
       <use x="266.845703" xlink:href="#ArialMT-105"/>
       <use x="289.0625" xlink:href="#ArialMT-99"/>
       <use x="339.0625" xlink:href="#ArialMT-32"/>
       <use x="366.845703" xlink:href="#ArialMT-82"/>
       <use x="439.0625" xlink:href="#ArialMT-101"/>
       <use x="494.677734" xlink:href="#ArialMT-103"/>
       <use x="550.292969" xlink:href="#ArialMT-114"/>
       <use x="583.59375" xlink:href="#ArialMT-101"/>
       <use x="639.208984" xlink:href="#ArialMT-115"/>
       <use x="689.208984" xlink:href="#ArialMT-115"/>
       <use x="739.208984" xlink:href="#ArialMT-105"/>
       <use x="761.425781" xlink:href="#ArialMT-111"/>
       <use x="817.041016" xlink:href="#ArialMT-110"/>
      </g>
     </g>
    </g>
   </g>
   <g id="matplotlib.axis_2">
    <g id="ytick_1">
     <g id="line2d_1">
      <path clip-path="url(#pd6ae212bb6)" d="M 55.72125 250.173096 
L 402.600657 250.173096 
" style="fill:none;stroke:#cccccc;stroke-linecap:round;"/>
     </g>
     <g id="text_6">
      <!-- $\mathdefault{-10^{2}}$ -->
      <g style="fill:#262626;" transform="translate(22.46125 255.844971)scale(0.11 -0.11)">
       <defs>
        <path d="M 52.828125 31.203125 
L 5.5625 31.203125 
L 5.5625 39.40625 
L 52.828125 39.40625 
z
" id="ArialMT-8722"/>
        <path d="M 37.25 0 
L 28.46875 0 
L 28.46875 56 
Q 25.296875 52.984375 20.140625 49.953125 
Q 14.984375 46.921875 10.890625 45.40625 
L 10.890625 53.90625 
Q 18.265625 57.375 23.78125 62.296875 
Q 29.296875 67.234375 31.59375 71.875 
L 37.25 71.875 
z
" id="ArialMT-49"/>
        <path d="M 4.15625 35.296875 
Q 4.15625 48 6.765625 55.734375 
Q 9.375 63.484375 14.515625 67.671875 
Q 19.671875 71.875 27.484375 71.875 
Q 33.25 71.875 37.59375 69.546875 
Q 41.9375 67.234375 44.765625 62.859375 
Q 47.609375 58.5 49.21875 52.21875 
Q 50.828125 45.953125 50.828125 35.296875 
Q 50.828125 22.703125 48.234375 14.96875 
Q 45.65625 7.234375 40.5 3 
Q 35.359375 -1.21875 27.484375 -1.21875 
Q 17.140625 -1.21875 11.234375 6.203125 
Q 4.15625 15.140625 4.15625 35.296875 
z
M 13.1875 35.296875 
Q 13.1875 17.671875 17.3125 11.828125 
Q 21.4375 6 27.484375 6 
Q 33.546875 6 37.671875 11.859375 
Q 41.796875 17.71875 41.796875 35.296875 
Q 41.796875 52.984375 37.671875 58.78125 
Q 33.546875 64.59375 27.390625 64.59375 
Q 21.34375 64.59375 17.71875 59.46875 
Q 13.1875 52.9375 13.1875 35.296875 
z
" id="ArialMT-48"/>
        <path d="M 50.34375 8.453125 
L 50.34375 0 
L 3.03125 0 
Q 2.9375 3.171875 4.046875 6.109375 
Q 5.859375 10.9375 9.828125 15.625 
Q 13.8125 20.3125 21.34375 26.46875 
Q 33.015625 36.03125 37.109375 41.625 
Q 41.21875 47.21875 41.21875 52.203125 
Q 41.21875 57.421875 37.46875 61 
Q 33.734375 64.59375 27.734375 64.59375 
Q 21.390625 64.59375 17.578125 60.78125 
Q 13.765625 56.984375 13.71875 50.25 
L 4.6875 51.171875 
Q 5.609375 61.28125 11.65625 66.578125 
Q 17.71875 71.875 27.9375 71.875 
Q 38.234375 71.875 44.234375 66.15625 
Q 50.25 60.453125 50.25 52 
Q 50.25 47.703125 48.484375 43.546875 
Q 46.734375 39.40625 42.65625 34.8125 
Q 38.578125 30.21875 29.109375 22.21875 
Q 21.1875 15.578125 18.9375 13.203125 
Q 16.703125 10.84375 15.234375 8.453125 
z
" id="ArialMT-50"/>
       </defs>
       <use transform="translate(0 0.99375)" xlink:href="#ArialMT-8722"/>
       <use transform="translate(58.398438 0.99375)" xlink:href="#ArialMT-49"/>
       <use transform="translate(114.013672 0.99375)" xlink:href="#ArialMT-48"/>
       <use transform="translate(171.37125 70.6875)scale(0.7)" xlink:href="#ArialMT-50"/>
      </g>
     </g>
    </g>
    <g id="ytick_2">
     <g id="line2d_2">
      <path clip-path="url(#pd6ae212bb6)" d="M 55.72125 210.456986 
L 402.600657 210.456986 
" style="fill:none;stroke:#cccccc;stroke-linecap:round;"/>
     </g>
     <g id="text_7">
      <!-- $\mathdefault{-10^{1}}$ -->
      <g style="fill:#262626;" transform="translate(22.46125 216.128861)scale(0.11 -0.11)">
       <use transform="translate(0 0.99375)" xlink:href="#ArialMT-8722"/>
       <use transform="translate(58.398438 0.99375)" xlink:href="#ArialMT-49"/>
       <use transform="translate(114.013672 0.99375)" xlink:href="#ArialMT-48"/>
       <use transform="translate(171.37125 70.6875)scale(0.7)" xlink:href="#ArialMT-49"/>
      </g>
     </g>
    </g>
    <g id="ytick_3">
     <g id="line2d_3">
      <path clip-path="url(#pd6ae212bb6)" d="M 55.72125 160.63211 
L 402.600657 160.63211 
" style="fill:none;stroke:#cccccc;stroke-linecap:round;"/>
     </g>
     <g id="text_8">
      <!-- $\mathdefault{-10^{0}}$ -->
      <g style="fill:#262626;" transform="translate(22.46125 166.303985)scale(0.11 -0.11)">
       <use transform="translate(0 0.99375)" xlink:href="#ArialMT-8722"/>
       <use transform="translate(58.398438 0.99375)" xlink:href="#ArialMT-49"/>
       <use transform="translate(114.013672 0.99375)" xlink:href="#ArialMT-48"/>
       <use transform="translate(171.37125 70.6875)scale(0.7)" xlink:href="#ArialMT-48"/>
      </g>
     </g>
    </g>
    <g id="ytick_4">
     <g id="line2d_4">
      <path clip-path="url(#pd6ae212bb6)" d="M 55.72125 138.567605 
L 402.600657 138.567605 
" style="fill:none;stroke:#cccccc;stroke-linecap:round;"/>
     </g>
     <g id="text_9">
      <!-- $\mathdefault{0}$ -->
      <g style="fill:#262626;" transform="translate(40.06125 142.504402)scale(0.11 -0.11)">
       <use transform="translate(0 0.125)" xlink:href="#ArialMT-48"/>
      </g>
     </g>
    </g>
    <g id="ytick_5">
     <g id="line2d_5">
      <path clip-path="url(#pd6ae212bb6)" d="M 55.72125 116.503099 
L 402.600657 116.503099 
" style="fill:none;stroke:#cccccc;stroke-linecap:round;"/>
     </g>
     <g id="text_10">
      <!-- $\mathdefault{10^{0}}$ -->
      <g style="fill:#262626;" transform="translate(28.95125 122.174974)scale(0.11 -0.11)">
       <use transform="translate(0 0.99375)" xlink:href="#ArialMT-49"/>
       <use transform="translate(55.615234 0.99375)" xlink:href="#ArialMT-48"/>
       <use transform="translate(112.972813 70.6875)scale(0.7)" xlink:href="#ArialMT-48"/>
      </g>
     </g>
    </g>
    <g id="ytick_6">
     <g id="line2d_6">
      <path clip-path="url(#pd6ae212bb6)" d="M 55.72125 66.678224 
L 402.600657 66.678224 
" style="fill:none;stroke:#cccccc;stroke-linecap:round;"/>
     </g>
     <g id="text_11">
      <!-- $\mathdefault{10^{1}}$ -->
      <g style="fill:#262626;" transform="translate(28.95125 72.350099)scale(0.11 -0.11)">
       <use transform="translate(0 0.99375)" xlink:href="#ArialMT-49"/>
       <use transform="translate(55.615234 0.99375)" xlink:href="#ArialMT-48"/>
       <use transform="translate(112.972813 70.6875)scale(0.7)" xlink:href="#ArialMT-49"/>
      </g>
     </g>
    </g>
    <g id="ytick_7">
     <g id="line2d_7">
      <path clip-path="url(#pd6ae212bb6)" d="M 55.72125 26.962113 
L 402.600657 26.962113 
" style="fill:none;stroke:#cccccc;stroke-linecap:round;"/>
     </g>
     <g id="text_12">
      <!-- $\mathdefault{10^{2}}$ -->
      <g style="fill:#262626;" transform="translate(28.95125 32.633988)scale(0.11 -0.11)">
       <use transform="translate(0 0.99375)" xlink:href="#ArialMT-49"/>
       <use transform="translate(55.615234 0.99375)" xlink:href="#ArialMT-48"/>
       <use transform="translate(112.972813 70.6875)scale(0.7)" xlink:href="#ArialMT-50"/>
      </g>
     </g>
    </g>
    <g id="text_13">
     <!-- Percentage difference of F-score -->
     <g style="fill:#262626;" transform="translate(15.935625 217.50625)rotate(-90)scale(0.12 -0.12)">
      <defs>
       <path d="M 7.71875 0 
L 7.71875 71.578125 
L 34.71875 71.578125 
Q 41.84375 71.578125 45.609375 70.90625 
Q 50.875 70.015625 54.4375 67.546875 
Q 58.015625 65.09375 60.1875 60.640625 
Q 62.359375 56.203125 62.359375 50.875 
Q 62.359375 41.75 56.546875 35.421875 
Q 50.734375 29.109375 35.546875 29.109375 
L 17.1875 29.109375 
L 17.1875 0 
z
M 17.1875 37.546875 
L 35.6875 37.546875 
Q 44.875 37.546875 48.734375 40.96875 
Q 52.59375 44.390625 52.59375 50.59375 
Q 52.59375 55.078125 50.3125 58.265625 
Q 48.046875 61.46875 44.34375 62.5 
Q 41.9375 63.140625 35.5 63.140625 
L 17.1875 63.140625 
z
" id="ArialMT-80"/>
       <path d="M 8.6875 0 
L 8.6875 45.015625 
L 0.921875 45.015625 
L 0.921875 51.859375 
L 8.6875 51.859375 
L 8.6875 57.375 
Q 8.6875 62.59375 9.625 65.140625 
Q 10.890625 68.5625 14.078125 70.671875 
Q 17.28125 72.796875 23.046875 72.796875 
Q 26.765625 72.796875 31.25 71.921875 
L 29.9375 64.265625 
Q 27.203125 64.75 24.75 64.75 
Q 20.75 64.75 19.09375 63.03125 
Q 17.4375 61.328125 17.4375 56.640625 
L 17.4375 51.859375 
L 27.546875 51.859375 
L 27.546875 45.015625 
L 17.4375 45.015625 
L 17.4375 0 
z
" id="ArialMT-102"/>
       <path d="M 3.171875 21.484375 
L 3.171875 30.328125 
L 30.171875 30.328125 
L 30.171875 21.484375 
z
" id="ArialMT-45"/>
      </defs>
      <use xlink:href="#ArialMT-80"/>
      <use x="66.699219" xlink:href="#ArialMT-101"/>
      <use x="122.314453" xlink:href="#ArialMT-114"/>
      <use x="155.615234" xlink:href="#ArialMT-99"/>
      <use x="205.615234" xlink:href="#ArialMT-101"/>
      <use x="261.230469" xlink:href="#ArialMT-110"/>
      <use x="316.845703" xlink:href="#ArialMT-116"/>
      <use x="344.628906" xlink:href="#ArialMT-97"/>
      <use x="400.244141" xlink:href="#ArialMT-103"/>
      <use x="455.859375" xlink:href="#ArialMT-101"/>
      <use x="511.474609" xlink:href="#ArialMT-32"/>
      <use x="539.257812" xlink:href="#ArialMT-100"/>
      <use x="594.873047" xlink:href="#ArialMT-105"/>
      <use x="617.089844" xlink:href="#ArialMT-102"/>
      <use x="643.123047" xlink:href="#ArialMT-102"/>
      <use x="670.90625" xlink:href="#ArialMT-101"/>
      <use x="726.521484" xlink:href="#ArialMT-114"/>
      <use x="759.822266" xlink:href="#ArialMT-101"/>
      <use x="815.4375" xlink:href="#ArialMT-110"/>
      <use x="871.052734" xlink:href="#ArialMT-99"/>
      <use x="921.052734" xlink:href="#ArialMT-101"/>
      <use x="976.667969" xlink:href="#ArialMT-32"/>
      <use x="1004.451172" xlink:href="#ArialMT-111"/>
      <use x="1060.066406" xlink:href="#ArialMT-102"/>
      <use x="1087.849609" xlink:href="#ArialMT-32"/>
      <use x="1115.632812" xlink:href="#ArialMT-70"/>
      <use x="1176.716797" xlink:href="#ArialMT-45"/>
      <use x="1210.017578" xlink:href="#ArialMT-115"/>
      <use x="1260.017578" xlink:href="#ArialMT-99"/>
      <use x="1310.017578" xlink:href="#ArialMT-111"/>
      <use x="1365.632812" xlink:href="#ArialMT-114"/>
      <use x="1398.933594" xlink:href="#ArialMT-101"/>
     </g>
    </g>
   </g>
   <g id="patch_3">
    <path clip-path="url(#pd6ae212bb6)" d="M 62.936342 234.948963 
L 90.131687 234.948963 
L 90.131687 199.003151 
L 62.936342 199.003151 
L 62.936342 234.948963 
z
" style="fill:#72b6a1;stroke:#595959;stroke-linejoin:miter;stroke-width:1.5;"/>
   </g>
   <g id="patch_4">
    <path clip-path="url(#pd6ae212bb6)" d="M 90.686694 230.614094 
L 117.88204 230.614094 
L 117.88204 176.100169 
L 90.686694 176.100169 
L 90.686694 230.614094 
z
" style="fill:#e99675;stroke:#595959;stroke-linejoin:miter;stroke-width:1.5;"/>
   </g>
   <g id="patch_5">
    <path clip-path="url(#pd6ae212bb6)" d="M 132.312223 232.388611 
L 159.507569 232.388611 
L 159.507569 201.915464 
L 132.312223 201.915464 
L 132.312223 232.388611 
z
" style="fill:#72b6a1;stroke:#595959;stroke-linejoin:miter;stroke-width:1.5;"/>
   </g>
   <g id="patch_6">
    <path clip-path="url(#pd6ae212bb6)" d="M 160.062576 228.027088 
L 187.257921 228.027088 
L 187.257921 166.497359 
L 160.062576 166.497359 
L 160.062576 228.027088 
z
" style="fill:#e99675;stroke:#595959;stroke-linejoin:miter;stroke-width:1.5;"/>
   </g>
   <g id="patch_7">
    <path clip-path="url(#pd6ae212bb6)" d="M 201.688105 232.484611 
L 228.88345 232.484611 
L 228.88345 194.987328 
L 201.688105 194.987328 
L 201.688105 232.484611 
z
" style="fill:#72b6a1;stroke:#595959;stroke-linejoin:miter;stroke-width:1.5;"/>
   </g>
   <g id="patch_8">
    <path clip-path="url(#pd6ae212bb6)" d="M 229.438457 237.062058 
L 256.633803 237.062058 
L 256.633803 184.687278 
L 229.438457 184.687278 
L 229.438457 237.062058 
z
" style="fill:#e99675;stroke:#595959;stroke-linejoin:miter;stroke-width:1.5;"/>
   </g>
   <g id="patch_9">
    <path clip-path="url(#pd6ae212bb6)" d="M 271.063986 233.342965 
L 298.259332 233.342965 
L 298.259332 207.327049 
L 271.063986 207.327049 
L 271.063986 233.342965 
z
" style="fill:#72b6a1;stroke:#595959;stroke-linejoin:miter;stroke-width:1.5;"/>
   </g>
   <g id="patch_10">
    <path clip-path="url(#pd6ae212bb6)" d="M 298.814339 241.366472 
L 326.009684 241.366472 
L 326.009684 205.024062 
L 298.814339 205.024062 
L 298.814339 241.366472 
z
" style="fill:#e99675;stroke:#595959;stroke-linejoin:miter;stroke-width:1.5;"/>
   </g>
   <g id="patch_11">
    <path clip-path="url(#pd6ae212bb6)" d="M 340.439868 230.065644 
L 367.635213 230.065644 
L 367.635213 166.497359 
L 340.439868 166.497359 
L 340.439868 230.065644 
z
" style="fill:#72b6a1;stroke:#595959;stroke-linejoin:miter;stroke-width:1.5;"/>
   </g>
   <g id="patch_12">
    <path clip-path="url(#pd6ae212bb6)" d="M 368.19022 239.155459 
L 395.385566 239.155459 
L 395.385566 192.343864 
L 368.19022 192.343864 
L 368.19022 239.155459 
z
" style="fill:#e99675;stroke:#595959;stroke-linejoin:miter;stroke-width:1.5;"/>
   </g>
   <g id="patch_13">
    <path clip-path="url(#pd6ae212bb6)" d="M 90.409191 138.567605 
L 90.409191 138.567605 
L 90.409191 138.567605 
L 90.409191 138.567605 
z
" style="fill:#72b6a1;stroke:#595959;stroke-linejoin:miter;stroke-width:0.75;"/>
   </g>
   <g id="patch_14">
    <path clip-path="url(#pd6ae212bb6)" d="M 90.409191 138.567605 
L 90.409191 138.567605 
L 90.409191 138.567605 
L 90.409191 138.567605 
z
" style="fill:#e99675;stroke:#595959;stroke-linejoin:miter;stroke-width:0.75;"/>
   </g>
   <g id="line2d_8">
    <path clip-path="url(#pd6ae212bb6)" d="M 76.534014 234.948963 
L 76.534014 245.482651 
" style="fill:none;stroke:#595959;stroke-linecap:round;stroke-width:1.5;"/>
   </g>
   <g id="line2d_9">
    <path clip-path="url(#pd6ae212bb6)" d="M 76.534014 199.003151 
L 76.534014 138.567605 
" style="fill:none;stroke:#595959;stroke-linecap:round;stroke-width:1.5;"/>
   </g>
   <g id="line2d_10">
    <path clip-path="url(#pd6ae212bb6)" d="M 69.735178 245.482651 
L 83.332851 245.482651 
" style="fill:none;stroke:#595959;stroke-linecap:round;stroke-width:1.5;"/>
   </g>
   <g id="line2d_11">
    <path clip-path="url(#pd6ae212bb6)" d="M 69.735178 138.567605 
L 83.332851 138.567605 
" style="fill:none;stroke:#595959;stroke-linecap:round;stroke-width:1.5;"/>
   </g>
   <g id="line2d_12">
    <defs>
     <path d="M -0 3.535534 
L 2.12132 0 
L -0 -3.535534 
L -2.12132 -0 
z
" id="m50922d4fa5" style="stroke:#595959;stroke-linejoin:miter;"/>
    </defs>
    <g clip-path="url(#pd6ae212bb6)">
     <use style="fill:#595959;stroke:#595959;stroke-linejoin:miter;" x="76.534014" xlink:href="#m50922d4fa5" y="250.173096"/>
     <use style="fill:#595959;stroke:#595959;stroke-linejoin:miter;" x="76.534014" xlink:href="#m50922d4fa5" y="250.173096"/>
    </g>
   </g>
   <g id="line2d_13">
    <path clip-path="url(#pd6ae212bb6)" d="M 104.284367 230.614094 
L 104.284367 245.711007 
" style="fill:none;stroke:#595959;stroke-linecap:round;stroke-width:1.5;"/>
   </g>
   <g id="line2d_14">
    <path clip-path="url(#pd6ae212bb6)" d="M 104.284367 176.100169 
L 104.284367 41.303795 
" style="fill:none;stroke:#595959;stroke-linecap:round;stroke-width:1.5;"/>
   </g>
   <g id="line2d_15">
    <path clip-path="url(#pd6ae212bb6)" d="M 97.485531 245.711007 
L 111.083203 245.711007 
" style="fill:none;stroke:#595959;stroke-linecap:round;stroke-width:1.5;"/>
   </g>
   <g id="line2d_16">
    <path clip-path="url(#pd6ae212bb6)" d="M 97.485531 41.303795 
L 111.083203 41.303795 
" style="fill:none;stroke:#595959;stroke-linecap:round;stroke-width:1.5;"/>
   </g>
   <g id="line2d_17">
    <g clip-path="url(#pd6ae212bb6)">
     <use style="fill:#595959;stroke:#595959;stroke-linejoin:miter;" x="104.284367" xlink:href="#m50922d4fa5" y="250.173096"/>
     <use style="fill:#595959;stroke:#595959;stroke-linejoin:miter;" x="104.284367" xlink:href="#m50922d4fa5" y="250.173096"/>
     <use style="fill:#595959;stroke:#595959;stroke-linejoin:miter;" x="104.284367" xlink:href="#m50922d4fa5" y="250.173096"/>
     <use style="fill:#595959;stroke:#595959;stroke-linejoin:miter;" x="104.284367" xlink:href="#m50922d4fa5" y="250.173096"/>
     <use style="fill:#595959;stroke:#595959;stroke-linejoin:miter;" x="104.284367" xlink:href="#m50922d4fa5" y="246.443574"/>
     <use style="fill:#595959;stroke:#595959;stroke-linejoin:miter;" x="104.284367" xlink:href="#m50922d4fa5" y="250.173096"/>
     <use style="fill:#595959;stroke:#595959;stroke-linejoin:miter;" x="104.284367" xlink:href="#m50922d4fa5" y="250.173096"/>
     <use style="fill:#595959;stroke:#595959;stroke-linejoin:miter;" x="104.284367" xlink:href="#m50922d4fa5" y="250.173096"/>
     <use style="fill:#595959;stroke:#595959;stroke-linejoin:miter;" x="104.284367" xlink:href="#m50922d4fa5" y="250.173096"/>
     <use style="fill:#595959;stroke:#595959;stroke-linejoin:miter;" x="104.284367" xlink:href="#m50922d4fa5" y="250.173096"/>
     <use style="fill:#595959;stroke:#595959;stroke-linejoin:miter;" x="104.284367" xlink:href="#m50922d4fa5" y="246.299407"/>
     <use style="fill:#595959;stroke:#595959;stroke-linejoin:miter;" x="104.284367" xlink:href="#m50922d4fa5" y="250.173096"/>
     <use style="fill:#595959;stroke:#595959;stroke-linejoin:miter;" x="104.284367" xlink:href="#m50922d4fa5" y="250.173096"/>
     <use style="fill:#595959;stroke:#595959;stroke-linejoin:miter;" x="104.284367" xlink:href="#m50922d4fa5" y="246.577358"/>
     <use style="fill:#595959;stroke:#595959;stroke-linejoin:miter;" x="104.284367" xlink:href="#m50922d4fa5" y="250.173096"/>
     <use style="fill:#595959;stroke:#595959;stroke-linejoin:miter;" x="104.284367" xlink:href="#m50922d4fa5" y="247.446853"/>
     <use style="fill:#595959;stroke:#595959;stroke-linejoin:miter;" x="104.284367" xlink:href="#m50922d4fa5" y="247.49743"/>
     <use style="fill:#595959;stroke:#595959;stroke-linejoin:miter;" x="104.284367" xlink:href="#m50922d4fa5" y="21.637257"/>
     <use style="fill:#595959;stroke:#595959;stroke-linejoin:miter;" x="104.284367" xlink:href="#m50922d4fa5" y="23.330406"/>
     <use style="fill:#595959;stroke:#595959;stroke-linejoin:miter;" x="104.284367" xlink:href="#m50922d4fa5" y="9.055441"/>
     <use style="fill:#595959;stroke:#595959;stroke-linejoin:miter;" x="104.284367" xlink:href="#m50922d4fa5" y="15.632575"/>
     <use style="fill:#595959;stroke:#595959;stroke-linejoin:miter;" x="104.284367" xlink:href="#m50922d4fa5" y="25.730085"/>
     <use style="fill:#595959;stroke:#595959;stroke-linejoin:miter;" x="104.284367" xlink:href="#m50922d4fa5" y="36.070478"/>
     <use style="fill:#595959;stroke:#595959;stroke-linejoin:miter;" x="104.284367" xlink:href="#m50922d4fa5" y="8.492573"/>
     <use style="fill:#595959;stroke:#595959;stroke-linejoin:miter;" x="104.284367" xlink:href="#m50922d4fa5" y="38.917854"/>
     <use style="fill:#595959;stroke:#595959;stroke-linejoin:miter;" x="104.284367" xlink:href="#m50922d4fa5" y="9.252333"/>
     <use style="fill:#595959;stroke:#595959;stroke-linejoin:miter;" x="104.284367" xlink:href="#m50922d4fa5" y="13.8895"/>
     <use style="fill:#595959;stroke:#595959;stroke-linejoin:miter;" x="104.284367" xlink:href="#m50922d4fa5" y="15.695456"/>
     <use style="fill:#595959;stroke:#595959;stroke-linejoin:miter;" x="104.284367" xlink:href="#m50922d4fa5" y="38.788651"/>
     <use style="fill:#595959;stroke:#595959;stroke-linejoin:miter;" x="104.284367" xlink:href="#m50922d4fa5" y="13.484909"/>
     <use style="fill:#595959;stroke:#595959;stroke-linejoin:miter;" x="104.284367" xlink:href="#m50922d4fa5" y="23.863452"/>
     <use style="fill:#595959;stroke:#595959;stroke-linejoin:miter;" x="104.284367" xlink:href="#m50922d4fa5" y="9.209075"/>
    </g>
   </g>
   <g id="line2d_18">
    <path clip-path="url(#pd6ae212bb6)" d="M 145.909896 232.388611 
L 145.909896 245.211015 
" style="fill:none;stroke:#595959;stroke-linecap:round;stroke-width:1.5;"/>
   </g>
   <g id="line2d_19">
    <path clip-path="url(#pd6ae212bb6)" d="M 145.909896 201.915464 
L 145.909896 138.567605 
" style="fill:none;stroke:#595959;stroke-linecap:round;stroke-width:1.5;"/>
   </g>
   <g id="line2d_20">
    <path clip-path="url(#pd6ae212bb6)" d="M 139.11106 245.211015 
L 152.708732 245.211015 
" style="fill:none;stroke:#595959;stroke-linecap:round;stroke-width:1.5;"/>
   </g>
   <g id="line2d_21">
    <path clip-path="url(#pd6ae212bb6)" d="M 139.11106 138.567605 
L 152.708732 138.567605 
" style="fill:none;stroke:#595959;stroke-linecap:round;stroke-width:1.5;"/>
   </g>
   <g id="line2d_22">
    <g clip-path="url(#pd6ae212bb6)">
     <use style="fill:#595959;stroke:#595959;stroke-linejoin:miter;" x="145.909896" xlink:href="#m50922d4fa5" y="250.173096"/>
     <use style="fill:#595959;stroke:#595959;stroke-linejoin:miter;" x="145.909896" xlink:href="#m50922d4fa5" y="247.898576"/>
     <use style="fill:#595959;stroke:#595959;stroke-linejoin:miter;" x="145.909896" xlink:href="#m50922d4fa5" y="250.173096"/>
     <use style="fill:#595959;stroke:#595959;stroke-linejoin:miter;" x="145.909896" xlink:href="#m50922d4fa5" y="250.173096"/>
     <use style="fill:#595959;stroke:#595959;stroke-linejoin:miter;" x="145.909896" xlink:href="#m50922d4fa5" y="247.579627"/>
     <use style="fill:#595959;stroke:#595959;stroke-linejoin:miter;" x="145.909896" xlink:href="#m50922d4fa5" y="250.173096"/>
    </g>
   </g>
   <g id="line2d_23">
    <path clip-path="url(#pd6ae212bb6)" d="M 173.660249 228.027088 
L 173.660249 243.209897 
" style="fill:none;stroke:#595959;stroke-linecap:round;stroke-width:1.5;"/>
   </g>
   <g id="line2d_24">
    <path clip-path="url(#pd6ae212bb6)" d="M 173.660249 166.497359 
L 173.660249 44.764666 
" style="fill:none;stroke:#595959;stroke-linecap:round;stroke-width:1.5;"/>
   </g>
   <g id="line2d_25">
    <path clip-path="url(#pd6ae212bb6)" d="M 166.861412 243.209897 
L 180.459085 243.209897 
" style="fill:none;stroke:#595959;stroke-linecap:round;stroke-width:1.5;"/>
   </g>
   <g id="line2d_26">
    <path clip-path="url(#pd6ae212bb6)" d="M 166.861412 44.764666 
L 180.459085 44.764666 
" style="fill:none;stroke:#595959;stroke-linecap:round;stroke-width:1.5;"/>
   </g>
   <g id="line2d_27">
    <g clip-path="url(#pd6ae212bb6)">
     <use style="fill:#595959;stroke:#595959;stroke-linejoin:miter;" x="173.660249" xlink:href="#m50922d4fa5" y="244.165332"/>
     <use style="fill:#595959;stroke:#595959;stroke-linejoin:miter;" x="173.660249" xlink:href="#m50922d4fa5" y="250.173096"/>
     <use style="fill:#595959;stroke:#595959;stroke-linejoin:miter;" x="173.660249" xlink:href="#m50922d4fa5" y="250.173096"/>
     <use style="fill:#595959;stroke:#595959;stroke-linejoin:miter;" x="173.660249" xlink:href="#m50922d4fa5" y="247.446853"/>
     <use style="fill:#595959;stroke:#595959;stroke-linejoin:miter;" x="173.660249" xlink:href="#m50922d4fa5" y="250.173096"/>
     <use style="fill:#595959;stroke:#595959;stroke-linejoin:miter;" x="173.660249" xlink:href="#m50922d4fa5" y="244.560052"/>
     <use style="fill:#595959;stroke:#595959;stroke-linejoin:miter;" x="173.660249" xlink:href="#m50922d4fa5" y="243.806723"/>
     <use style="fill:#595959;stroke:#595959;stroke-linejoin:miter;" x="173.660249" xlink:href="#m50922d4fa5" y="244.165332"/>
     <use style="fill:#595959;stroke:#595959;stroke-linejoin:miter;" x="173.660249" xlink:href="#m50922d4fa5" y="250.173096"/>
     <use style="fill:#595959;stroke:#595959;stroke-linejoin:miter;" x="173.660249" xlink:href="#m50922d4fa5" y="250.173096"/>
     <use style="fill:#595959;stroke:#595959;stroke-linejoin:miter;" x="173.660249" xlink:href="#m50922d4fa5" y="244.04204"/>
     <use style="fill:#595959;stroke:#595959;stroke-linejoin:miter;" x="173.660249" xlink:href="#m50922d4fa5" y="245.211015"/>
     <use style="fill:#595959;stroke:#595959;stroke-linejoin:miter;" x="173.660249" xlink:href="#m50922d4fa5" y="245.389758"/>
     <use style="fill:#595959;stroke:#595959;stroke-linejoin:miter;" x="173.660249" xlink:href="#m50922d4fa5" y="243.405617"/>
     <use style="fill:#595959;stroke:#595959;stroke-linejoin:miter;" x="173.660249" xlink:href="#m50922d4fa5" y="244.721103"/>
     <use style="fill:#595959;stroke:#595959;stroke-linejoin:miter;" x="173.660249" xlink:href="#m50922d4fa5" y="250.173096"/>
     <use style="fill:#595959;stroke:#595959;stroke-linejoin:miter;" x="173.660249" xlink:href="#m50922d4fa5" y="244.890775"/>
     <use style="fill:#595959;stroke:#595959;stroke-linejoin:miter;" x="173.660249" xlink:href="#m50922d4fa5" y="243.710201"/>
     <use style="fill:#595959;stroke:#595959;stroke-linejoin:miter;" x="173.660249" xlink:href="#m50922d4fa5" y="245.482651"/>
     <use style="fill:#595959;stroke:#595959;stroke-linejoin:miter;" x="173.660249" xlink:href="#m50922d4fa5" y="247.298542"/>
     <use style="fill:#595959;stroke:#595959;stroke-linejoin:miter;" x="173.660249" xlink:href="#m50922d4fa5" y="245.11572"/>
     <use style="fill:#595959;stroke:#595959;stroke-linejoin:miter;" x="173.660249" xlink:href="#m50922d4fa5" y="250.173096"/>
     <use style="fill:#595959;stroke:#595959;stroke-linejoin:miter;" x="173.660249" xlink:href="#m50922d4fa5" y="23.311996"/>
     <use style="fill:#595959;stroke:#595959;stroke-linejoin:miter;" x="173.660249" xlink:href="#m50922d4fa5" y="20.609532"/>
     <use style="fill:#595959;stroke:#595959;stroke-linejoin:miter;" x="173.660249" xlink:href="#m50922d4fa5" y="9.055441"/>
     <use style="fill:#595959;stroke:#595959;stroke-linejoin:miter;" x="173.660249" xlink:href="#m50922d4fa5" y="15.553309"/>
     <use style="fill:#595959;stroke:#595959;stroke-linejoin:miter;" x="173.660249" xlink:href="#m50922d4fa5" y="25.009166"/>
     <use style="fill:#595959;stroke:#595959;stroke-linejoin:miter;" x="173.660249" xlink:href="#m50922d4fa5" y="29.448824"/>
     <use style="fill:#595959;stroke:#595959;stroke-linejoin:miter;" x="173.660249" xlink:href="#m50922d4fa5" y="41.614587"/>
     <use style="fill:#595959;stroke:#595959;stroke-linejoin:miter;" x="173.660249" xlink:href="#m50922d4fa5" y="8.666282"/>
     <use style="fill:#595959;stroke:#595959;stroke-linejoin:miter;" x="173.660249" xlink:href="#m50922d4fa5" y="9.055441"/>
     <use style="fill:#595959;stroke:#595959;stroke-linejoin:miter;" x="173.660249" xlink:href="#m50922d4fa5" y="13.217019"/>
     <use style="fill:#595959;stroke:#595959;stroke-linejoin:miter;" x="173.660249" xlink:href="#m50922d4fa5" y="32.160478"/>
     <use style="fill:#595959;stroke:#595959;stroke-linejoin:miter;" x="173.660249" xlink:href="#m50922d4fa5" y="15.755649"/>
     <use style="fill:#595959;stroke:#595959;stroke-linejoin:miter;" x="173.660249" xlink:href="#m50922d4fa5" y="25.914987"/>
     <use style="fill:#595959;stroke:#595959;stroke-linejoin:miter;" x="173.660249" xlink:href="#m50922d4fa5" y="14.2081"/>
     <use style="fill:#595959;stroke:#595959;stroke-linejoin:miter;" x="173.660249" xlink:href="#m50922d4fa5" y="29.443088"/>
     <use style="fill:#595959;stroke:#595959;stroke-linejoin:miter;" x="173.660249" xlink:href="#m50922d4fa5" y="9.401354"/>
    </g>
   </g>
   <g id="line2d_28">
    <path clip-path="url(#pd6ae212bb6)" d="M 215.285777 232.484611 
L 215.285777 244.905724 
" style="fill:none;stroke:#595959;stroke-linecap:round;stroke-width:1.5;"/>
   </g>
   <g id="line2d_29">
    <path clip-path="url(#pd6ae212bb6)" d="M 215.285777 194.987328 
L 215.285777 138.567605 
" style="fill:none;stroke:#595959;stroke-linecap:round;stroke-width:1.5;"/>
   </g>
   <g id="line2d_30">
    <path clip-path="url(#pd6ae212bb6)" d="M 208.486941 244.905724 
L 222.084614 244.905724 
" style="fill:none;stroke:#595959;stroke-linecap:round;stroke-width:1.5;"/>
   </g>
   <g id="line2d_31">
    <path clip-path="url(#pd6ae212bb6)" d="M 208.486941 138.567605 
L 222.084614 138.567605 
" style="fill:none;stroke:#595959;stroke-linecap:round;stroke-width:1.5;"/>
   </g>
   <g id="line2d_32">
    <g clip-path="url(#pd6ae212bb6)">
     <use style="fill:#595959;stroke:#595959;stroke-linejoin:miter;" x="215.285777" xlink:href="#m50922d4fa5" y="250.173096"/>
    </g>
   </g>
   <g id="line2d_33">
    <path clip-path="url(#pd6ae212bb6)" d="M 243.03613 237.062058 
L 243.03613 250.173096 
" style="fill:none;stroke:#595959;stroke-linecap:round;stroke-width:1.5;"/>
   </g>
   <g id="line2d_34">
    <path clip-path="url(#pd6ae212bb6)" d="M 243.03613 184.687278 
L 243.03613 47.480639 
" style="fill:none;stroke:#595959;stroke-linecap:round;stroke-width:1.5;"/>
   </g>
   <g id="line2d_35">
    <path clip-path="url(#pd6ae212bb6)" d="M 236.237294 250.173096 
L 249.834966 250.173096 
" style="fill:none;stroke:#595959;stroke-linecap:round;stroke-width:1.5;"/>
   </g>
   <g id="line2d_36">
    <path clip-path="url(#pd6ae212bb6)" d="M 236.237294 47.480639 
L 249.834966 47.480639 
" style="fill:none;stroke:#595959;stroke-linecap:round;stroke-width:1.5;"/>
   </g>
   <g id="line2d_37">
    <g clip-path="url(#pd6ae212bb6)">
     <use style="fill:#595959;stroke:#595959;stroke-linejoin:miter;" x="243.03613" xlink:href="#m50922d4fa5" y="28.563121"/>
     <use style="fill:#595959;stroke:#595959;stroke-linejoin:miter;" x="243.03613" xlink:href="#m50922d4fa5" y="26.72293"/>
     <use style="fill:#595959;stroke:#595959;stroke-linejoin:miter;" x="243.03613" xlink:href="#m50922d4fa5" y="8.677111"/>
     <use style="fill:#595959;stroke:#595959;stroke-linejoin:miter;" x="243.03613" xlink:href="#m50922d4fa5" y="18.04098"/>
     <use style="fill:#595959;stroke:#595959;stroke-linejoin:miter;" x="243.03613" xlink:href="#m50922d4fa5" y="8.671614"/>
     <use style="fill:#595959;stroke:#595959;stroke-linejoin:miter;" x="243.03613" xlink:href="#m50922d4fa5" y="9.454679"/>
     <use style="fill:#595959;stroke:#595959;stroke-linejoin:miter;" x="243.03613" xlink:href="#m50922d4fa5" y="13.198144"/>
     <use style="fill:#595959;stroke:#595959;stroke-linejoin:miter;" x="243.03613" xlink:href="#m50922d4fa5" y="15.99748"/>
     <use style="fill:#595959;stroke:#595959;stroke-linejoin:miter;" x="243.03613" xlink:href="#m50922d4fa5" y="13.914716"/>
     <use style="fill:#595959;stroke:#595959;stroke-linejoin:miter;" x="243.03613" xlink:href="#m50922d4fa5" y="28.094728"/>
     <use style="fill:#595959;stroke:#595959;stroke-linejoin:miter;" x="243.03613" xlink:href="#m50922d4fa5" y="9.418564"/>
    </g>
   </g>
   <g id="line2d_38">
    <path clip-path="url(#pd6ae212bb6)" d="M 284.661659 233.342965 
L 284.661659 244.84887 
" style="fill:none;stroke:#595959;stroke-linecap:round;stroke-width:1.5;"/>
   </g>
   <g id="line2d_39">
    <path clip-path="url(#pd6ae212bb6)" d="M 284.661659 207.327049 
L 284.661659 138.567605 
" style="fill:none;stroke:#595959;stroke-linecap:round;stroke-width:1.5;"/>
   </g>
   <g id="line2d_40">
    <path clip-path="url(#pd6ae212bb6)" d="M 277.862822 244.84887 
L 291.460495 244.84887 
" style="fill:none;stroke:#595959;stroke-linecap:round;stroke-width:1.5;"/>
   </g>
   <g id="line2d_41">
    <path clip-path="url(#pd6ae212bb6)" d="M 277.862822 138.567605 
L 291.460495 138.567605 
" style="fill:none;stroke:#595959;stroke-linecap:round;stroke-width:1.5;"/>
   </g>
   <g id="line2d_42"/>
   <g id="line2d_43">
    <path clip-path="url(#pd6ae212bb6)" d="M 312.412011 241.366472 
L 312.412011 250.173096 
" style="fill:none;stroke:#595959;stroke-linecap:round;stroke-width:1.5;"/>
   </g>
   <g id="line2d_44">
    <path clip-path="url(#pd6ae212bb6)" d="M 312.412011 205.024062 
L 312.412011 32.718451 
" style="fill:none;stroke:#595959;stroke-linecap:round;stroke-width:1.5;"/>
   </g>
   <g id="line2d_45">
    <path clip-path="url(#pd6ae212bb6)" d="M 305.613175 250.173096 
L 319.210848 250.173096 
" style="fill:none;stroke:#595959;stroke-linecap:round;stroke-width:1.5;"/>
   </g>
   <g id="line2d_46">
    <path clip-path="url(#pd6ae212bb6)" d="M 305.613175 32.718451 
L 319.210848 32.718451 
" style="fill:none;stroke:#595959;stroke-linecap:round;stroke-width:1.5;"/>
   </g>
   <g id="line2d_47">
    <g clip-path="url(#pd6ae212bb6)">
     <use style="fill:#595959;stroke:#595959;stroke-linejoin:miter;" x="312.412011" xlink:href="#m50922d4fa5" y="27.120721"/>
     <use style="fill:#595959;stroke:#595959;stroke-linejoin:miter;" x="312.412011" xlink:href="#m50922d4fa5" y="8.318004"/>
     <use style="fill:#595959;stroke:#595959;stroke-linejoin:miter;" x="312.412011" xlink:href="#m50922d4fa5" y="8.495252"/>
     <use style="fill:#595959;stroke:#595959;stroke-linejoin:miter;" x="312.412011" xlink:href="#m50922d4fa5" y="8.495252"/>
     <use style="fill:#595959;stroke:#595959;stroke-linejoin:miter;" x="312.412011" xlink:href="#m50922d4fa5" y="16.756567"/>
     <use style="fill:#595959;stroke:#595959;stroke-linejoin:miter;" x="312.412011" xlink:href="#m50922d4fa5" y="21.158476"/>
     <use style="fill:#595959;stroke:#595959;stroke-linejoin:miter;" x="312.412011" xlink:href="#m50922d4fa5" y="15.843391"/>
     <use style="fill:#595959;stroke:#595959;stroke-linejoin:miter;" x="312.412011" xlink:href="#m50922d4fa5" y="9.401354"/>
    </g>
   </g>
   <g id="line2d_48">
    <path clip-path="url(#pd6ae212bb6)" d="M 354.03754 230.065644 
L 354.03754 241.408807 
" style="fill:none;stroke:#595959;stroke-linecap:round;stroke-width:1.5;"/>
   </g>
   <g id="line2d_49">
    <path clip-path="url(#pd6ae212bb6)" d="M 354.03754 166.497359 
L 354.03754 138.567605 
" style="fill:none;stroke:#595959;stroke-linecap:round;stroke-width:1.5;"/>
   </g>
   <g id="line2d_50">
    <path clip-path="url(#pd6ae212bb6)" d="M 347.238704 241.408807 
L 360.836377 241.408807 
" style="fill:none;stroke:#595959;stroke-linecap:round;stroke-width:1.5;"/>
   </g>
   <g id="line2d_51">
    <path clip-path="url(#pd6ae212bb6)" d="M 347.238704 138.567605 
L 360.836377 138.567605 
" style="fill:none;stroke:#595959;stroke-linecap:round;stroke-width:1.5;"/>
   </g>
   <g id="line2d_52">
    <g clip-path="url(#pd6ae212bb6)">
     <use style="fill:#595959;stroke:#595959;stroke-linejoin:miter;" x="354.03754" xlink:href="#m50922d4fa5" y="247.34482"/>
     <use style="fill:#595959;stroke:#595959;stroke-linejoin:miter;" x="354.03754" xlink:href="#m50922d4fa5" y="250.173096"/>
    </g>
   </g>
   <g id="line2d_53">
    <path clip-path="url(#pd6ae212bb6)" d="M 381.787893 239.155459 
L 381.787893 250.173096 
" style="fill:none;stroke:#595959;stroke-linecap:round;stroke-width:1.5;"/>
   </g>
   <g id="line2d_54">
    <path clip-path="url(#pd6ae212bb6)" d="M 381.787893 192.343864 
L 381.787893 33.045695 
" style="fill:none;stroke:#595959;stroke-linecap:round;stroke-width:1.5;"/>
   </g>
   <g id="line2d_55">
    <path clip-path="url(#pd6ae212bb6)" d="M 374.989057 250.173096 
L 388.586729 250.173096 
" style="fill:none;stroke:#595959;stroke-linecap:round;stroke-width:1.5;"/>
   </g>
   <g id="line2d_56">
    <path clip-path="url(#pd6ae212bb6)" d="M 374.989057 33.045695 
L 388.586729 33.045695 
" style="fill:none;stroke:#595959;stroke-linecap:round;stroke-width:1.5;"/>
   </g>
   <g id="line2d_57">
    <g clip-path="url(#pd6ae212bb6)">
     <use style="fill:#595959;stroke:#595959;stroke-linejoin:miter;" x="381.787893" xlink:href="#m50922d4fa5" y="23.035587"/>
     <use style="fill:#595959;stroke:#595959;stroke-linejoin:miter;" x="381.787893" xlink:href="#m50922d4fa5" y="30.345962"/>
     <use style="fill:#595959;stroke:#595959;stroke-linejoin:miter;" x="381.787893" xlink:href="#m50922d4fa5" y="8.318004"/>
     <use style="fill:#595959;stroke:#595959;stroke-linejoin:miter;" x="381.787893" xlink:href="#m50922d4fa5" y="20.684261"/>
     <use style="fill:#595959;stroke:#595959;stroke-linejoin:miter;" x="381.787893" xlink:href="#m50922d4fa5" y="8.855309"/>
     <use style="fill:#595959;stroke:#595959;stroke-linejoin:miter;" x="381.787893" xlink:href="#m50922d4fa5" y="8.677111"/>
     <use style="fill:#595959;stroke:#595959;stroke-linejoin:miter;" x="381.787893" xlink:href="#m50922d4fa5" y="14.652847"/>
     <use style="fill:#595959;stroke:#595959;stroke-linejoin:miter;" x="381.787893" xlink:href="#m50922d4fa5" y="18.992166"/>
     <use style="fill:#595959;stroke:#595959;stroke-linejoin:miter;" x="381.787893" xlink:href="#m50922d4fa5" y="13.198144"/>
     <use style="fill:#595959;stroke:#595959;stroke-linejoin:miter;" x="381.787893" xlink:href="#m50922d4fa5" y="9.401354"/>
    </g>
   </g>
   <g id="line2d_58">
    <path clip-path="url(#pd6ae212bb6)" d="M 62.936342 219.070827 
L 90.131687 219.070827 
" style="fill:none;stroke:#595959;stroke-linecap:round;stroke-width:1.5;"/>
   </g>
   <g id="line2d_59">
    <path clip-path="url(#pd6ae212bb6)" d="M 90.686694 208.236837 
L 117.88204 208.236837 
" style="fill:none;stroke:#595959;stroke-linecap:round;stroke-width:1.5;"/>
   </g>
   <g id="line2d_60">
    <path clip-path="url(#pd6ae212bb6)" d="M 132.312223 220.776056 
L 159.507569 220.776056 
" style="fill:none;stroke:#595959;stroke-linecap:round;stroke-width:1.5;"/>
   </g>
   <g id="line2d_61">
    <path clip-path="url(#pd6ae212bb6)" d="M 160.062576 208.963866 
L 187.257921 208.963866 
" style="fill:none;stroke:#595959;stroke-linecap:round;stroke-width:1.5;"/>
   </g>
   <g id="line2d_62">
    <path clip-path="url(#pd6ae212bb6)" d="M 201.688105 205.546248 
L 228.88345 205.546248 
" style="fill:none;stroke:#595959;stroke-linecap:round;stroke-width:1.5;"/>
   </g>
   <g id="line2d_63">
    <path clip-path="url(#pd6ae212bb6)" d="M 229.438457 215.99636 
L 256.633803 215.99636 
" style="fill:none;stroke:#595959;stroke-linecap:round;stroke-width:1.5;"/>
   </g>
   <g id="line2d_64">
    <path clip-path="url(#pd6ae212bb6)" d="M 271.063986 214.668181 
L 298.259332 214.668181 
" style="fill:none;stroke:#595959;stroke-linecap:round;stroke-width:1.5;"/>
   </g>
   <g id="line2d_65">
    <path clip-path="url(#pd6ae212bb6)" d="M 298.814339 225.504237 
L 326.009684 225.504237 
" style="fill:none;stroke:#595959;stroke-linecap:round;stroke-width:1.5;"/>
   </g>
   <g id="line2d_66">
    <path clip-path="url(#pd6ae212bb6)" d="M 340.439868 180.82441 
L 367.635213 180.82441 
" style="fill:none;stroke:#595959;stroke-linecap:round;stroke-width:1.5;"/>
   </g>
   <g id="line2d_67">
    <path clip-path="url(#pd6ae212bb6)" d="M 368.19022 218.763133 
L 395.385566 218.763133 
" style="fill:none;stroke:#595959;stroke-linecap:round;stroke-width:1.5;"/>
   </g>
   <g id="patch_15">
    <path d="M 55.72125 253.28 
L 55.72125 7.2 
" style="fill:none;stroke:#cccccc;stroke-linecap:square;stroke-linejoin:miter;stroke-width:1.25;"/>
   </g>
   <g id="patch_16">
    <path d="M 402.600657 253.28 
L 402.600657 7.2 
" style="fill:none;stroke:#cccccc;stroke-linecap:square;stroke-linejoin:miter;stroke-width:1.25;"/>
   </g>
   <g id="patch_17">
    <path d="M 55.72125 253.28 
L 402.600657 253.28 
" style="fill:none;stroke:#cccccc;stroke-linecap:square;stroke-linejoin:miter;stroke-width:1.25;"/>
   </g>
   <g id="patch_18">
    <path d="M 55.72125 7.2 
L 402.600657 7.2 
" style="fill:none;stroke:#cccccc;stroke-linecap:square;stroke-linejoin:miter;stroke-width:1.25;"/>
   </g>
   <g id="legend_1">
    <g id="patch_19">
     <path d="M 153.739626 334.564844 
L 175.739626 334.564844 
L 175.739626 326.864844 
L 153.739626 326.864844 
z
" style="fill:#72b6a1;stroke:#595959;stroke-linejoin:miter;stroke-width:0.75;"/>
    </g>
    <g id="text_14">
     <!-- Oracle -->
     <g style="fill:#262626;" transform="translate(184.539626 334.564844)scale(0.11 -0.11)">
      <defs>
       <path d="M 4.828125 34.859375 
Q 4.828125 52.6875 14.390625 62.765625 
Q 23.96875 72.859375 39.109375 72.859375 
Q 49.03125 72.859375 56.984375 68.109375 
Q 64.9375 63.375 69.109375 54.90625 
Q 73.296875 46.4375 73.296875 35.6875 
Q 73.296875 24.8125 68.890625 16.21875 
Q 64.5 7.625 56.4375 3.203125 
Q 48.390625 -1.21875 39.0625 -1.21875 
Q 28.953125 -1.21875 20.984375 3.65625 
Q 13.03125 8.546875 8.921875 16.984375 
Q 4.828125 25.4375 4.828125 34.859375 
z
M 14.59375 34.71875 
Q 14.59375 21.78125 21.546875 14.328125 
Q 28.515625 6.890625 39.015625 6.890625 
Q 49.703125 6.890625 56.609375 14.40625 
Q 63.53125 21.921875 63.53125 35.75 
Q 63.53125 44.484375 60.578125 51 
Q 57.625 57.515625 51.921875 61.109375 
Q 46.234375 64.703125 39.15625 64.703125 
Q 29.109375 64.703125 21.84375 57.78125 
Q 14.59375 50.875 14.59375 34.71875 
z
" id="ArialMT-79"/>
      </defs>
      <use xlink:href="#ArialMT-79"/>
      <use x="77.783203" xlink:href="#ArialMT-114"/>
      <use x="111.083984" xlink:href="#ArialMT-97"/>
      <use x="166.699219" xlink:href="#ArialMT-99"/>
      <use x="216.699219" xlink:href="#ArialMT-108"/>
      <use x="238.916016" xlink:href="#ArialMT-101"/>
     </g>
    </g>
    <g id="patch_20">
     <path d="M 238.936344 334.564844 
L 260.936344 334.564844 
L 260.936344 326.864844 
L 238.936344 326.864844 
z
" style="fill:#e99675;stroke:#595959;stroke-linejoin:miter;stroke-width:0.75;"/>
    </g>
    <g id="text_15">
     <!-- Testing -->
     <g style="fill:#262626;" transform="translate(269.736344 334.564844)scale(0.11 -0.11)">
      <defs>
       <path d="M 25.921875 0 
L 25.921875 63.140625 
L 2.34375 63.140625 
L 2.34375 71.578125 
L 59.078125 71.578125 
L 59.078125 63.140625 
L 35.40625 63.140625 
L 35.40625 0 
z
" id="ArialMT-84"/>
      </defs>
      <use xlink:href="#ArialMT-84"/>
      <use x="49.958984" xlink:href="#ArialMT-101"/>
      <use x="105.574219" xlink:href="#ArialMT-115"/>
      <use x="155.574219" xlink:href="#ArialMT-116"/>
      <use x="183.357422" xlink:href="#ArialMT-105"/>
      <use x="205.574219" xlink:href="#ArialMT-110"/>
      <use x="261.189453" xlink:href="#ArialMT-103"/>
     </g>
    </g>
   </g>
  </g>
 </g>
 <defs>
  <clipPath id="pd6ae212bb6">
   <rect height="246.08" width="346.879407" x="55.72125" y="7.2"/>
  </clipPath>
 </defs>
</svg>
